<svg width="40" height="40" viewBox="0 0 40 40" fill="none" xmlns="http://www.w3.org/2000/svg">
<path d="M31.2485 16.1828V15.0084C31.2485 8.56055 26.2123 3.3335 20 3.3335C13.7876 3.3335 8.75145 8.56055 8.75145 15.0084V16.1828C8.75145 17.5922 8.34953 18.9698 7.59633 20.1425L5.7506 23.016C4.0647 25.6407 5.35175 29.2083 8.28393 30.0383C15.9546 32.2097 24.0455 32.2097 31.716 30.0383C34.6483 29.2083 35.9353 25.6407 34.2493 23.016L32.4037 20.1425C31.6505 18.9698 31.2485 17.5922 31.2485 16.1828Z" stroke="#F5F8FA" stroke-opacity="0.8" stroke-width="1.5"/>
<path d="M12.5 31.6665C13.5917 34.5795 16.5374 36.6665 20 36.6665C23.4625 36.6665 26.4083 34.5795 27.5 31.6665" stroke="#F5F8FA" stroke-opacity="0.8" stroke-width="1.5" stroke-linecap="round"/>
<path d="M20 10V16.6667" stroke="#F5F8FA" stroke-opacity="0.8" stroke-width="1.5" stroke-linecap="round"/>
</svg>
