<svg width="40" height="40" viewBox="0 0 40 40" fill="none" xmlns="http://www.w3.org/2000/svg">
<path d="M20.0002 36.6668C29.2048 36.6668 36.6668 29.2048 36.6668 20.0002C36.6668 10.7954 29.2048 3.3335 20.0002 3.3335C10.7954 3.3335 3.3335 10.7954 3.3335 20.0002C3.3335 22.6663 3.95953 25.1862 5.0726 27.421C5.3684 28.0148 5.46685 28.6937 5.29536 29.3345L4.30268 33.0447C3.87175 34.6552 5.34518 36.1285 6.95575 35.6977L10.6658 34.705C11.3067 34.5335 11.9855 34.632 12.5794 34.9277C14.8141 36.0408 17.334 36.6668 20.0002 36.6668Z" stroke="#F5F8FA" stroke-opacity="0.8" stroke-width="1.5"/>
<path d="M13.3335 17.5H26.6668" stroke="#F5F8FA" stroke-opacity="0.8" stroke-width="1.5" stroke-linecap="round"/>
<path d="M13.3335 23.3335H22.5002" stroke="#F5F8FA" stroke-opacity="0.8" stroke-width="1.5" stroke-linecap="round"/>
</svg>
