<svg width="40" height="40" viewBox="0 0 40 40" fill="none" xmlns="http://www.w3.org/2000/svg">
<path d="M36.6668 17.5002V20.0002C36.6668 27.8568 36.6668 31.7853 34.226 34.226C31.7853 36.6668 27.8568 36.6668 20.0002 36.6668C12.1434 36.6668 8.21505 36.6668 5.77428 34.226C3.3335 31.7853 3.3335 27.8568 3.3335 20.0002C3.3335 12.1434 3.3335 8.21505 5.77428 5.77428C8.21505 3.3335 12.1434 3.3335 20.0002 3.3335H22.5002" stroke="#F5F8FA" stroke-opacity="0.8" stroke-width="1.5" stroke-linecap="round"/>
<path d="M27.7535 5.7586L28.835 4.67723C30.6267 2.88558 33.5315 2.88558 35.3232 4.67723C37.1147 6.4689 37.1147 9.37375 35.3232 11.1654L34.2417 12.2467M27.7535 5.7586C27.7535 5.7586 27.8887 8.05648 29.9163 10.084C31.9438 12.1116 34.2417 12.2467 34.2417 12.2467M27.7535 5.7586L17.8122 15.7001C17.1388 16.3734 16.8022 16.71 16.5125 17.0813C16.171 17.5192 15.8781 17.993 15.6392 18.4943C15.4367 18.9193 15.2861 19.371 14.985 20.2745L14.0209 23.1668M34.2417 12.2467L24.3003 22.1882C23.627 22.8615 23.2903 23.1982 22.919 23.4878C22.4812 23.8293 22.0073 24.1222 21.506 24.3612C21.081 24.5637 20.6293 24.7142 19.7258 25.0153L16.8335 25.9795M14.0209 23.1668L13.397 25.0383C13.2488 25.483 13.3645 25.973 13.6959 26.3045C14.0273 26.6358 14.5174 26.7515 14.962 26.6033L16.8335 25.9795M14.0209 23.1668L16.8335 25.9795" stroke="#F5F8FA" stroke-opacity="0.8" stroke-width="1.5"/>
</svg>
