<svg width="45" height="45" viewBox="0 0 45 45" fill="none" xmlns="http://www.w3.org/2000/svg">
<path d="M11.25 15H18.75" stroke="#C7D0DA" stroke-opacity="0.8" stroke-width="1.5" stroke-linecap="round" stroke-linejoin="round"/>
<path d="M39.0624 16.875H34.1828C30.8372 16.875 28.125 19.3933 28.125 22.5C28.125 25.6067 30.8372 28.125 34.1828 28.125H39.0624C39.2188 28.125 39.2968 28.125 39.3628 28.1211C40.374 28.0594 41.1793 27.3116 41.2457 26.3726C41.25 26.3113 41.25 26.2388 41.25 26.0938V18.9062C41.25 18.7612 41.25 18.6886 41.2457 18.6274C41.1793 17.6884 40.374 16.9406 39.3628 16.879C39.2968 16.875 39.2188 16.875 39.0624 16.875Z" stroke="#C7D0DA" stroke-opacity="0.8" stroke-width="1.5"/>
<path d="M39.3094 16.875C39.1637 13.3644 38.6936 11.212 37.1783 9.69669C34.9817 7.5 31.446 7.5 24.375 7.5H18.75C11.6789 7.5 8.14341 7.5 5.94669 9.69669C3.75 11.8934 3.75 15.4289 3.75 22.5C3.75 29.571 3.75 33.1067 5.94669 35.3032C8.14341 37.5 11.6789 37.5 18.75 37.5H24.375C31.446 37.5 34.9817 37.5 37.1783 35.3032C38.6936 33.7881 39.1637 31.6356 39.3094 28.125" stroke="#C7D0DA" stroke-opacity="0.8" stroke-width="1.5"/>
<path d="M33.7334 22.5H33.751" stroke="#C7D0DA" stroke-opacity="0.8" stroke-width="2" stroke-linecap="round" stroke-linejoin="round"/>
</svg>
